<?xml version="1.0" encoding="UTF-8" standalone="no"?>
<!DOCTYPE svg PUBLIC "-//W3C//DTD SVG 1.1//EN"
 "http://www.w3.org/Graphics/SVG/1.1/DTD/svg11.dtd">
<!-- Generated by graphviz version 2.43.0 (0)
 -->
<!-- Title: Component Pages: 1 -->
<svg width="445pt" height="45pt"
 viewBox="0.00 0.00 445.00 45.00" xmlns="http://www.w3.org/2000/svg" xmlns:xlink="http://www.w3.org/1999/xlink">
<g id="graph0" class="graph" transform="scale(1 1) rotate(0) translate(4 41)">
<title>Component</title>
<polygon fill="white" stroke="transparent" points="-4,4 -4,-41 441,-41 441,4 -4,4"/>
<!-- nd_1 -->
<g id="node1" class="node">
<title>nd_1</title>
<polygon fill="none" stroke="black" points="0,-0.5 0,-36.5 54,-36.5 54,-0.5 0,-0.5"/>
<text text-anchor="middle" x="27" y="-14.8" font-family="Times,serif" font-size="14.00">HMI</text>
</g>
<!-- nd_2 -->
<g id="node2" class="node">
<title>nd_2</title>
<polygon fill="none" stroke="black" points="72.5,-0.5 72.5,-36.5 189.5,-36.5 189.5,-0.5 72.5,-0.5"/>
<text text-anchor="middle" x="131" y="-14.8" font-family="Times,serif" font-size="14.00">WEB SERVER</text>
</g>
<!-- nd_3 -->
<g id="node3" class="node">
<title>nd_3</title>
<polygon fill="none" stroke="black" points="207.5,-0.5 207.5,-36.5 364.5,-36.5 364.5,-0.5 207.5,-0.5"/>
<text text-anchor="middle" x="286" y="-14.8" font-family="Times,serif" font-size="14.00">DATA CONNECTOR</text>
</g>
<!-- nd_4 -->
<g id="node4" class="node">
<title>nd_4</title>
<polygon fill="none" stroke="black" points="383,-0.5 383,-36.5 437,-36.5 437,-0.5 383,-0.5"/>
<text text-anchor="middle" x="410" y="-14.8" font-family="Times,serif" font-size="14.00">DB</text>
</g>
</g>
</svg>
