<?xml version="1.0" encoding="UTF-8" standalone="no"?>
<!DOCTYPE svg PUBLIC "-//W3C//DTD SVG 1.1//EN"
 "http://www.w3.org/Graphics/SVG/1.1/DTD/svg11.dtd">
<!-- Generated by graphviz version 2.43.0 (0)
 -->
<!-- Title: Component Pages: 1 -->
<svg width="557pt" height="45pt"
 viewBox="0.00 0.00 557.00 45.00" xmlns="http://www.w3.org/2000/svg" xmlns:xlink="http://www.w3.org/1999/xlink">
<g id="graph0" class="graph" transform="scale(1 1) rotate(0) translate(4 41)">
<title>Component</title>
<polygon fill="white" stroke="transparent" points="-4,4 -4,-41 553,-41 553,4 -4,4"/>
<!-- nd_1 -->
<g id="node1" class="node">
<title>nd_1</title>
<polygon fill="none" stroke="black" points="0,-0.5 0,-36.5 54,-36.5 54,-0.5 0,-0.5"/>
<text text-anchor="middle" x="27" y="-14.8" font-family="Times,serif" font-size="14.00">HMI</text>
</g>
<!-- nd_2 -->
<g id="node2" class="node">
<title>nd_2</title>
<polygon fill="none" stroke="black" points="72,-0.5 72,-36.5 166,-36.5 166,-0.5 72,-0.5"/>
<text text-anchor="middle" x="119" y="-14.8" font-family="Times,serif" font-size="14.00">BROWSER</text>
</g>
<!-- nd_4 -->
<g id="node3" class="node">
<title>nd_4</title>
<polygon fill="none" stroke="black" points="184.5,-0.5 184.5,-36.5 301.5,-36.5 301.5,-0.5 184.5,-0.5"/>
<text text-anchor="middle" x="243" y="-14.8" font-family="Times,serif" font-size="14.00">WEB SERVER</text>
</g>
<!-- nd_5 -->
<g id="node4" class="node">
<title>nd_5</title>
<polygon fill="none" stroke="black" points="319.5,-0.5 319.5,-36.5 476.5,-36.5 476.5,-0.5 319.5,-0.5"/>
<text text-anchor="middle" x="398" y="-14.8" font-family="Times,serif" font-size="14.00">DATA CONNECTOR</text>
</g>
<!-- nd_6 -->
<g id="node5" class="node">
<title>nd_6</title>
<polygon fill="none" stroke="black" points="495,-0.5 495,-36.5 549,-36.5 549,-0.5 495,-0.5"/>
<text text-anchor="middle" x="522" y="-14.8" font-family="Times,serif" font-size="14.00">DB</text>
</g>
</g>
</svg>
