<?xml version="1.0" encoding="UTF-8" standalone="no"?>
<!DOCTYPE svg PUBLIC "-//W3C//DTD SVG 1.1//EN"
 "http://www.w3.org/Graphics/SVG/1.1/DTD/svg11.dtd">
<!-- Generated by graphviz version 2.43.0 (0)
 -->
<!-- Title: Component Pages: 1 -->
<svg width="405pt" height="223pt"
 viewBox="0.00 0.00 405.00 223.00" xmlns="http://www.w3.org/2000/svg" xmlns:xlink="http://www.w3.org/1999/xlink">
<g id="graph0" class="graph" transform="scale(1 1) rotate(0) translate(4 219)">
<title>Component</title>
<polygon fill="white" stroke="transparent" points="-4,4 -4,-219 401,-219 401,4 -4,4"/>
<g id="clust1" class="cluster">
<title>cluster_client</title>
<polygon fill="none" stroke="black" points="279,-92 279,-207 389,-207 389,-92 279,-92"/>
<text text-anchor="middle" x="334" y="-191.8" font-family="Times,serif" font-size="14.00">CLIENT</text>
</g>
<g id="clust2" class="cluster">
<title>cluster_browser</title>
<polygon fill="none" stroke="black" points="287,-100 287,-176 381,-176 381,-100 287,-100"/>
<text text-anchor="middle" x="334" y="-160.8" font-family="Times,serif" font-size="14.00">BROWSER</text>
</g>
<g id="clust3" class="cluster">
<title>cluster_server</title>
<polygon fill="none" stroke="black" points="8,-8 8,-84 389,-84 389,-8 8,-8"/>
<text text-anchor="middle" x="198.5" y="-68.8" font-family="Times,serif" font-size="14.00">SERVER</text>
</g>
<!-- nd_1 -->
<g id="node1" class="node">
<title>nd_1</title>
<polygon fill="none" stroke="black" points="295,-108.5 295,-144.5 349,-144.5 349,-108.5 295,-108.5"/>
<text text-anchor="middle" x="322" y="-122.8" font-family="Times,serif" font-size="14.00">HMI</text>
</g>
<!-- nd_2 -->
<g id="node2" class="node">
<title>nd_2</title>
<polygon fill="none" stroke="black" points="263.5,-16.5 263.5,-52.5 380.5,-52.5 380.5,-16.5 263.5,-16.5"/>
<text text-anchor="middle" x="322" y="-30.8" font-family="Times,serif" font-size="14.00">WEB SERVER</text>
</g>
<!-- nd_1&#45;&gt;nd_2 -->
<g id="edge1" class="edge">
<title>nd_1&#45;&gt;nd_2</title>
<path fill="none" stroke="black" d="M322,-108.15C322,-95.32 322,-77.61 322,-62.88"/>
<polygon fill="black" stroke="black" points="325.5,-62.8 322,-52.8 318.5,-62.8 325.5,-62.8"/>
</g>
<!-- nd_3 -->
<g id="node3" class="node">
<title>nd_3</title>
<polygon fill="none" stroke="black" points="88.5,-16.5 88.5,-52.5 245.5,-52.5 245.5,-16.5 88.5,-16.5"/>
<text text-anchor="middle" x="167" y="-30.8" font-family="Times,serif" font-size="14.00">DATA CONNECTOR</text>
</g>
<!-- nd_4 -->
<g id="node4" class="node">
<title>nd_4</title>
<polygon fill="none" stroke="black" points="16,-16.5 16,-52.5 70,-52.5 70,-16.5 16,-16.5"/>
<text text-anchor="middle" x="43" y="-30.8" font-family="Times,serif" font-size="14.00">DB</text>
</g>
</g>
</svg>
