<?xml version="1.0" encoding="UTF-8" standalone="no"?>
<!DOCTYPE svg PUBLIC "-//W3C//DTD SVG 1.1//EN"
 "http://www.w3.org/Graphics/SVG/1.1/DTD/svg11.dtd">
<!-- Generated by graphviz version 2.43.0 (0)
 -->
<!-- Title: Component Pages: 1 -->
<svg width="545pt" height="365pt"
 viewBox="0.00 0.00 545.00 365.40" xmlns="http://www.w3.org/2000/svg" xmlns:xlink="http://www.w3.org/1999/xlink">
<g id="graph0" class="graph" transform="scale(1 1) rotate(0) translate(4 361.4)">
<title>Component</title>
<polygon fill="white" stroke="transparent" points="-4,4 -4,-361.4 541,-361.4 541,4 -4,4"/>
<g id="clust1" class="cluster">
<title>cluster_client</title>
<polygon fill="none" stroke="black" points="326,-8 326,-176 466,-176 466,-8 326,-8"/>
<text text-anchor="middle" x="396" y="-160.8" font-family="Helvetica,Arial,sans-serif" font-size="14.00">CLIENT</text>
</g>
<g id="clust2" class="cluster">
<title>cluster_browser</title>
<polygon fill="none" stroke="black" points="334,-16 334,-145 458,-145 458,-16 334,-16"/>
<text text-anchor="middle" x="396" y="-129.8" font-family="Helvetica,Arial,sans-serif" font-size="14.00">BROWSER</text>
</g>
<g id="clust3" class="cluster">
<title>cluster_server</title>
<polygon fill="none" stroke="black" points="8,-207 8,-349.4 490,-349.4 490,-207 8,-207"/>
<text text-anchor="middle" x="249" y="-334.2" font-family="Helvetica,Arial,sans-serif" font-size="14.00">SERVER</text>
</g>
<!-- nd_1 -->
<g id="node1" class="node">
<title>nd_1</title>
<polygon fill="#b0f7f9" stroke="black" points="423,-87 369,-87 369,-51 423,-51 423,-87"/>
<text text-anchor="middle" x="396" y="-65.3" font-family="Times,serif" font-size="14.00">HMI</text>
</g>
<!-- nd_2 -->
<g id="node2" class="node">
<title>nd_2</title>
<polygon fill="#b0f7f9" stroke="black" points="454.5,-284.7 337.5,-284.7 337.5,-248.7 454.5,-248.7 454.5,-284.7"/>
<text text-anchor="middle" x="396" y="-263" font-family="Times,serif" font-size="14.00">WEB SERVER</text>
</g>
<!-- nd_1&#45;&gt;nd_2 -->
<g id="edge1" class="edge">
<title>nd_1&#45;&gt;nd_2</title>
<path fill="none" stroke="blue" d="M382.7,-87.35C367.23,-108.72 342.6,-146.78 333,-184 327.18,-206.56 343.54,-227.29 361.04,-242.22"/>
<polygon fill="blue" stroke="blue" points="359.1,-245.14 369.09,-248.66 363.47,-239.68 359.1,-245.14"/>
<text text-anchor="middle" x="353.5" y="-187.8" font-family="Times,serif" font-size="14.00" fill="blue">HTTP</text>
</g>
<!-- nd_2&#45;&gt;nd_1 -->
<g id="edge2" class="edge">
<title>nd_2&#45;&gt;nd_1</title>
<path fill="none" stroke="blue" d="M396,-248.67C396,-214.7 396,-138.23 396,-97.22"/>
<polygon fill="blue" stroke="blue" points="399.5,-97.12 396,-87.12 392.5,-97.12 399.5,-97.12"/>
<text text-anchor="middle" x="416.5" y="-187.8" font-family="Times,serif" font-size="14.00" fill="blue">HTTP</text>
</g>
<!-- nd_2&#45;&gt;nd_1 -->
<g id="edge3" class="edge">
<title>nd_2&#45;&gt;nd_1</title>
<path fill="none" stroke="purple" d="M410.57,-248.63C420.45,-235.89 432.65,-217.54 438,-199 448.4,-162.97 429.61,-121.85 413.93,-95.92"/>
<polygon fill="purple" stroke="purple" points="416.85,-94 408.56,-87.41 410.93,-97.74 416.85,-94"/>
<text text-anchor="middle" x="488.5" y="-187.8" font-family="Times,serif" font-size="14.00" fill="purple">WEBSOCKET</text>
</g>
<!-- nd_3 -->
<g id="node3" class="node">
<title>nd_3</title>
<polygon fill="#b0f7f9" stroke="black" points="285.5,-284.7 128.5,-284.7 128.5,-248.7 285.5,-248.7 285.5,-284.7"/>
<text text-anchor="middle" x="207" y="-263" font-family="Times,serif" font-size="14.00">DATA CONNECTOR</text>
</g>
<!-- nd_2&#45;&gt;nd_3 -->
<g id="edge4" class="edge">
<title>nd_2&#45;&gt;nd_3</title>
<path fill="none" stroke="green" d="M337.43,-250.42C333.75,-249.74 330.09,-249.15 326.5,-248.7 316.33,-247.4 305.68,-247.26 295.12,-247.87"/>
<polygon fill="green" stroke="green" points="294.72,-244.39 285.03,-248.68 295.28,-251.37 294.72,-244.39"/>
<text text-anchor="middle" x="311.5" y="-252.5" font-family="Times,serif" font-size="14.00" fill="green">TCP</text>
</g>
<!-- nd_3&#45;&gt;nd_2 -->
<g id="edge5" class="edge">
<title>nd_3&#45;&gt;nd_2</title>
<path fill="none" stroke="green" d="M285.05,-284.71C297.23,-285.98 309.78,-286.41 327.12,-284.58"/>
<polygon fill="green" stroke="green" points="327.79,-288.02 337.28,-283.32 326.93,-281.08 327.79,-288.02"/>
<text text-anchor="middle" x="311.5" y="-294.5" font-family="Times,serif" font-size="14.00" fill="green">TCP</text>
</g>
<!-- nd_3&#45;&gt;nd_2 -->
<g id="edge6" class="edge">
<title>nd_3&#45;&gt;nd_2</title>
<path fill="none" stroke="orange" d="M285.51,-266.7C299.33,-266.7 313.62,-266.7 327.15,-266.7"/>
<polygon fill="orange" stroke="orange" points="327.33,-270.2 337.33,-266.7 327.33,-263.2 327.33,-270.2"/>
<text text-anchor="middle" x="311.5" y="-273.5" font-family="Times,serif" font-size="14.00" fill="orange">UDP</text>
</g>
<!-- nd_4 -->
<g id="node4" class="node">
<title>nd_4</title>
<ellipse fill="#e4eaea" stroke="black" cx="68" cy="-266.7" rx="24.9" ry="24.9"/>
<text text-anchor="middle" x="68" y="-263" font-family="Times,serif" font-size="14.00">DB</text>
</g>
<!-- nd_3&#45;&gt;nd_4 -->
<g id="edge7" class="edge">
<title>nd_3&#45;&gt;nd_4</title>
<path fill="none" stroke="grey" d="M148.9,-248.67C132.71,-247.26 116.53,-248.86 100.34,-253.47"/>
<polygon fill="grey" stroke="grey" points="99.25,-250.14 90.8,-256.54 101.4,-256.81 99.25,-250.14"/>
</g>
<!-- nd_4&#45;&gt;nd_3 -->
<g id="edge8" class="edge">
<title>nd_4&#45;&gt;nd_3</title>
<path fill="none" stroke="grey" d="M90.8,-276.86C106.69,-282.55 122.58,-285.33 138.46,-285.22"/>
<polygon fill="grey" stroke="grey" points="139.08,-288.69 148.9,-284.72 138.75,-281.7 139.08,-288.69"/>
</g>
</g>
</svg>
